<svg xmlns="http://www.w3.org/2000/svg" xmlns:xlink="http://www.w3.org/1999/xlink" version="1.1" >
<path fill="#D1057A" d="M477.3103,196.37985c0.28201-0.24466,0.73801-0.24466,1.02002,0.00261l4.07999,3.53983  c0.28201,0.24207,0.28201,0.6377,0,0.88235l-0.68399,0.58563c-0.27902,0.24467-0.73502,0.24467-1.017,0l-2.892-2.50911  l-2.892,2.50911c-0.27902,0.24467-0.73502,0.24467-1.017,0l-0.67801-0.58823c-0.28201-0.24207-0.28201-0.6377,0-0.88235  L477.3103,196.37985L477.3103,196.37985z M477.3103,191.38506l-4.07999,3.53983c-0.28201,0.24207-0.28201,0.6377,0,0.88235  l0.681,0.58824c0.27899,0.24466,0.73499,0.24466,1.017,0l2.892-2.50911l2.89499,2.5065c0.27902,0.24467,0.73502,0.24467,1.017,0  l0.67801-0.58823c0.28201-0.24207,0.28201-0.6377,0-0.88235l-4.07999-3.53984  C478.04831,191.13779,477.59232,191.13779,477.3103,191.38506z"/>
</svg>